<?xml version="1.0" encoding="utf-8"?>
<svg viewBox="59.11 214.48 58.426 71.041" xmlns="http://www.w3.org/2000/svg">
  <defs>
    <clipPath id="clippath0" transform="">
      <path d="M 188.844 389.077 C 166.503 377.277 172.703 337.883 172.703 337.883 L 172.703 337.883 C 172.703 337.883 179.389 350.452 188.769 357.677 L 188.769 357.677 C 208.361 372.767 236.26 377.593 236.26 377.593 L 236.26 377.593 C 236.26 377.593 206.828 369.077 196.104 360.225 L 196.104 360.225 C 185.379 351.374 174.387 337.429 175.083 331.721 L 175.083 331.721 C 175.354 329.498 175.508 328.164 175.589 327.401 L 175.589 327.401 C 176.328 327.157 181.312 325.873 194.363 330.265 L 194.363 330.265 C 208.597 335.055 217.137 348.247 233.68 355.315 L 233.68 355.315 C 241.167 358.514 280.82 352.686 280.965 352.664 L 280.965 352.664 C 280.839 352.681 252.86 356.417 238.173 353.252 L 238.173 353.252 C 223.454 350.079 210.134 332.87 194.076 324.185 L 194.076 324.185 C 182.108 317.712 179.247 318.372 178.567 319.128 L 178.567 319.128 C 180.038 315.462 188.8 293.849 192.128 290.814 L 192.128 290.814 C 195.766 287.496 218.386 294.268 229.18 294.678 L 229.18 294.678 C 238.774 295.044 272.889 292.028 280.362 291.353 L 280.362 291.353 C 275.832 291.736 260.933 292.785 238.717 292.244 L 238.717 292.244 C 211.794 291.589 195.687 284.828 195.687 284.828 L 195.687 284.828 L 218.185 233.391 C 218.185 233.391 234.749 233.941 247.467 234.4 L 247.467 234.4 C 253.149 234.604 264.494 231.754 275.308 228.537 L 275.308 228.537 C 271.202 229.287 266.558 229.948 261.335 230.442 L 261.335 230.442 C 232.698 233.151 221.413 226.95 221.413 226.95 L 221.413 226.95 L 254.128 160.063 C 254.128 160.063 271.911 157.337 282.29 150.925 L 282.29 150.925 C 292.669 144.513 303.149 134.252 303.149 134.252 L 303.149 134.252 C 303.149 134.252 285.843 147.111 278.854 150.249 L 278.854 150.249 C 269.599 154.404 258.232 153.155 258.232 153.155 L 258.232 153.155 L 286.789 87.693 L 233.597 184.15 C 233.597 184.15 221.98 166.834 210.376 146.261 L 210.376 146.261 C 203.661 134.357 203.804 121.592 205.116 112.948 L 205.116 112.948 C 203.743 120.461 202.723 131.018 204.885 141.092 L 204.885 141.092 C 208.848 159.554 231.513 193.134 231.513 193.134 L 231.513 193.134 L 200.687 251.774 C 200.687 251.774 169.153 221.533 153.412 191.083 L 153.412 191.083 C 143.401 171.717 133.82 152.603 129.975 144.9 L 129.975 144.9 C 131.764 149.259 135.271 158.278 142.094 176.59 L 142.094 176.59 C 157.753 218.615 197.078 259.684 197.078 259.684 L 197.078 259.684 L 178.289 299.363 C 178.289 299.363 156.888 290.402 117.419 253.054 L 117.419 253.054 C 95.127 231.961 86.328 216.475 82.887 207.024 L 82.887 207.024 C 85.789 215.902 92.596 230.255 108.511 250.27 L 108.511 250.27 C 129.727 276.952 173.633 300.678 173.629 307.84 L 173.629 307.84 C 173.624 313.84 165.029 327.478 165.029 327.478 L 165.029 327.478 C 165.029 327.478 130.865 313.02 110.347 305.114 L 110.347 305.114 C 89.83 297.21 55.298 270.302 55.298 270.302 L 55.298 270.302 C 55.298 270.302 85.24 297.247 104.351 308.079 L 104.351 308.079 C 123.46 318.911 160.699 332.704 160.699 332.704 L 160.699 332.704 C 160.699 332.704 146.038 338.715 129.424 340.088 L 129.424 340.088 C 112.811 341.461 91.985 333.993 91.985 333.993 L 91.985 333.993 C 91.985 333.993 106.914 340.577 121.415 343.597 L 121.415 343.597 C 135.918 346.616 158.901 339.276 158.901 339.276 L 158.901 339.276 C 158.901 339.276 123.93 363.651 103.084 362.7 L 103.084 362.7 C 82.238 361.748 82.066 362.919 37.451 302.155 L 37.451 302.155 C -7.164 241.392 68.511 135.922 68.511 135.922 L 68.511 135.922 C 68.511 135.922 73.799 155.969 79.269 167.655 L 79.269 167.655 C 84.74 179.34 98.596 193.008 107.654 203.299 L 107.654 203.299 C 116.713 213.592 136.376 243.099 150.68 239.449 L 150.68 239.449 C 164.984 235.797 134.085 202.954 122.773 191.078 L 122.773 191.078 C 117.61 185.658 86.467 158.351 86.541 121.178 L 86.541 121.178 C 86.616 84.005 148.522 65.517 148.522 65.517 L 148.522 65.517 C 148.522 65.517 138.702 88.608 142.242 102.244 L 142.242 102.244 C 146.191 117.446 151.002 124.08 159.247 142.942 L 159.247 142.942 C 167.492 161.805 184.38 184.136 191.865 180.912 L 191.865 180.912 C 199.349 177.688 182.531 146.916 177.16 131.382 L 177.16 131.382 C 171.79 115.848 169.543 94.022 177.039 73.173 L 177.039 73.173 C 184.536 52.324 226.341 59.276 247.539 60.079 L 247.539 60.079 C 256.452 60.416 266.926 58.404 276.544 56.39 L 276.544 56.39 C 288.885 53.808 299.819 51.226 304.249 53.609 L 304.249 53.609 C 309.203 57.071 312.988 81.963 324.772 101.355 L 324.772 101.355 C 336.555 120.749 348.467 140.885 344.065 150.849 L 344.065 150.849 C 339.663 160.813 343.073 160.6 313.313 172.317 L 313.313 172.317 C 283.555 184.033 282.969 189.499 285.972 193.57 L 285.972 193.57 C 288.976 197.643 302.715 192.941 314.61 190.861 L 314.61 190.861 C 326.506 188.781 349.593 171.718 349.593 171.718 L 349.593 171.718 C 349.593 171.718 363.238 210.707 359.837 222.028 L 359.837 222.028 C 356.435 233.349 336.034 243.813 316.733 251.785 L 316.733 251.785 C 297.433 259.757 269.796 263.824 268.982 272.394 L 268.982 272.394 C 268.168 280.965 294.089 280.263 310.138 277.84 L 310.138 277.84 C 326.187 275.416 356.997 263.133 356.997 263.133 L 356.997 263.133 C 356.997 263.133 352.889 290.285 348.923 300.556 L 348.923 300.556 C 344.956 310.827 335.902 340.375 292.371 380.934 L 292.371 380.934 C 273.018 398.965 254.829 404.906 238.628 404.905 L 238.628 404.905 C 218.388 404.905 201.253 395.631 188.844 389.077 M 175.589 327.401 C 175.522 327.423 175.49 327.436 175.49 327.436 L 175.49 327.436 C 175.49 327.436 175.807 325.342 175.589 327.401 M 178.567 319.128 C 178.429 319.47 178.356 319.656 178.356 319.656 L 178.356 319.656 C 178.356 319.656 178.334 319.386 178.567 319.128" style="fill: none; clip-rule: nonzero;"/>
    </clipPath>
  </defs>
  <g style="clip-path: url(#clippath0);" transform="matrix(0.173365, 0, 0, -0.201683, 55.058327, 296.142151)">
    <g transform="matrix(-270.0290222 -189.9827576 -190.2999268 270.4798279 347.0948181 313.7428894)">
      <rect x="-1.27" y="-1.391" width="3.291" height="2.859" style="fill: rgb(231, 76, 60); stroke: rgb(156, 177, 88);"/>
    </g>
  </g>
</svg>